<?xml version="1.0" encoding="UTF-8" standalone="no"?>
<!DOCTYPE svg PUBLIC "-//W3C//DTD SVG 1.1//EN"
 "http://www.w3.org/Graphics/SVG/1.1/DTD/svg11.dtd">
<!-- Generated by graphviz version 10.0.1 (0)
 -->
<!-- Title: G Pages: 1 -->
<svg width="329px" height="278px"
 viewBox="0.00 0.00 328.75 277.75" xmlns="http://www.w3.org/2000/svg" xmlns:xlink="http://www.w3.org/1999/xlink">
<g id="graph0" class="graph" transform="scale(1 1) rotate(0) translate(4 273.75)">
<title>G</title>
<text text-anchor="middle" x="160.38" y="-7.95" font-family="Times,serif" font-size="14.00">Nodes and CClusters are all connectable</text>
<g id="clust1" class="cluster">
<title>cluster_Cluster11</title>
<polygon fill="none" stroke="black" points="81.75,-33.25 81.75,-110.5 187.75,-110.5 187.75,-33.25 81.75,-33.25"/>
<text text-anchor="middle" x="134.75" y="-93.2" font-family="Times,serif" font-size="14.00">Cluster11</text>
</g>
<g id="clust2" class="cluster">
<title>cluster_Cluster20</title>
<polygon fill="none" stroke="black" points="203.75,-184.5 203.75,-261.75 309.75,-261.75 309.75,-184.5 203.75,-184.5"/>
<text text-anchor="middle" x="256.75" y="-244.45" font-family="Times,serif" font-size="14.00">Cluster20</text>
</g>
<g id="clust3" class="cluster">
<title>cluster_Cluster21</title>
<polygon fill="none" stroke="black" points="206.75,-33.25 206.75,-110.5 312.75,-110.5 312.75,-33.25 206.75,-33.25"/>
<text text-anchor="middle" x="259.75" y="-93.2" font-family="Times,serif" font-size="14.00">Cluster21</text>
</g>
<!-- Node00 -->
<g id="node1" class="node">
<title>Node00</title>
<polygon fill="none" stroke="black" points="71.5,-228.5 0,-228.5 0,-192.5 71.5,-192.5 71.5,-228.5"/>
<text text-anchor="middle" x="35.75" y="-205.82" font-family="Times,serif" font-size="14.00">Node00</text>
</g>
<!-- Node01 -->
<g id="node2" class="node">
<title>Node01</title>
<polygon fill="none" stroke="black" points="71.5,-77.25 0,-77.25 0,-41.25 71.5,-41.25 71.5,-77.25"/>
<text text-anchor="middle" x="35.75" y="-54.58" font-family="Times,serif" font-size="14.00">Node01</text>
</g>
<!-- Node00&#45;&gt;Node01 -->
<g id="edge1" class="edge">
<title>Node00&#45;&gt;Node01</title>
<path fill="none" stroke="black" d="M35.75,-192.09C35.75,-166.7 35.75,-119.23 35.75,-88.72"/>
<polygon fill="black" stroke="black" points="39.25,-89.07 35.75,-79.07 32.25,-89.07 39.25,-89.07"/>
</g>
<!-- Node10 -->
<g id="node3" class="node">
<title>Node10</title>
<polygon fill="none" stroke="black" points="169.5,-228.5 98,-228.5 98,-192.5 169.5,-192.5 169.5,-228.5"/>
<text text-anchor="middle" x="133.75" y="-205.82" font-family="Times,serif" font-size="14.00">Node10</text>
</g>
<!-- connect_node_Cluster11 -->
<g id="node4" class="node">
<title>connect_node_Cluster11</title>
</g>
<!-- Node10&#45;&gt;connect_node_Cluster11 -->
<g id="edge2" class="edge">
<title>Node10&#45;&gt;connect_node_Cluster11</title>
<path fill="none" stroke="black" d="M126.68,-192.24C119.85,-175.06 109.43,-147.54 101.75,-121.26"/>
<polygon fill="black" stroke="black" points="105.21,-120.65 99.16,-111.96 98.47,-122.53 105.21,-120.65"/>
</g>
<!-- Node11 -->
<g id="node5" class="node">
<title>Node11</title>
<polygon fill="none" stroke="black" points="179.5,-77.25 108,-77.25 108,-41.25 179.5,-41.25 179.5,-77.25"/>
<text text-anchor="middle" x="143.75" y="-54.58" font-family="Times,serif" font-size="14.00">Node11</text>
</g>
<!-- Node10&#45;&gt;Node11 -->
<g id="edge3" class="edge">
<title>Node10&#45;&gt;Node11</title>
<path fill="none" stroke="black" d="M134.92,-192.09C136.62,-166.7 139.8,-119.23 141.84,-88.72"/>
<polygon fill="black" stroke="black" points="145.31,-89.27 142.49,-79.06 138.33,-88.81 145.31,-89.27"/>
</g>
<!-- connect_node_Cluster20 -->
<g id="node6" class="node">
<title>connect_node_Cluster20</title>
</g>
<!-- connect_node_Cluster21 -->
<g id="node8" class="node">
<title>connect_node_Cluster21</title>
</g>
<!-- connect_node_Cluster20&#45;&gt;connect_node_Cluster21 -->
<g id="edge4" class="edge">
<title>connect_node_Cluster20&#45;&gt;connect_node_Cluster21</title>
<path fill="none" stroke="black" d="M208.33,-184.5C207.28,-175.67 206.27,-165.66 205.75,-156.5 204.95,-142.27 204.58,-136.99 205.86,-119.35"/>
<polygon fill="black" stroke="black" points="209.33,-119.89 206.63,-109.65 202.35,-119.34 209.33,-119.89"/>
</g>
<!-- Node21 -->
<g id="node9" class="node">
<title>Node21</title>
<polygon fill="none" stroke="black" points="304.5,-77.25 233,-77.25 233,-41.25 304.5,-41.25 304.5,-77.25"/>
<text text-anchor="middle" x="268.75" y="-54.58" font-family="Times,serif" font-size="14.00">Node21</text>
</g>
<!-- connect_node_Cluster20&#45;&gt;Node21 -->
<g id="edge6" class="edge">
<title>connect_node_Cluster20&#45;&gt;Node21</title>
<path fill="none" stroke="black" d="M220.75,-184.5C233.16,-151.24 247.94,-113.2 257.79,-88.07"/>
<polygon fill="black" stroke="black" points="261,-89.48 261.39,-78.9 254.48,-86.93 261,-89.48"/>
</g>
<!-- Node20 -->
<g id="node7" class="node">
<title>Node20</title>
<polygon fill="none" stroke="black" points="301.5,-228.5 230,-228.5 230,-192.5 301.5,-192.5 301.5,-228.5"/>
<text text-anchor="middle" x="265.75" y="-205.82" font-family="Times,serif" font-size="14.00">Node20</text>
</g>
<!-- Node20&#45;&gt;connect_node_Cluster21 -->
<g id="edge5" class="edge">
<title>Node20&#45;&gt;connect_node_Cluster21</title>
<path fill="none" stroke="black" d="M256.93,-192.06C248.59,-174.97 236.07,-147.73 227.19,-121.33"/>
<polygon fill="black" stroke="black" points="230.57,-120.41 224.21,-111.94 223.9,-122.53 230.57,-120.41"/>
</g>
<!-- Node20&#45;&gt;Node21 -->
<g id="edge7" class="edge">
<title>Node20&#45;&gt;Node21</title>
<path fill="none" stroke="black" d="M268.19,-192.36C269.54,-182 271.07,-168.52 271.75,-156.5 273.03,-133.8 272.1,-108.06 270.95,-88.91"/>
<polygon fill="black" stroke="black" points="274.46,-88.91 270.31,-79.16 267.48,-89.37 274.46,-88.91"/>
</g>
</g>
</svg>
