<?xml version="1.0" encoding="UTF-8" standalone="no"?>
<!DOCTYPE svg PUBLIC "-//W3C//DTD SVG 1.1//EN"
 "http://www.w3.org/Graphics/SVG/1.1/DTD/svg11.dtd">
<!-- Generated by graphviz version 10.0.1 (0)
 -->
<!-- Title: G Pages: 1 -->
<svg width="611px" height="183px"
 viewBox="0.00 0.00 611.25 182.50" xmlns="http://www.w3.org/2000/svg" xmlns:xlink="http://www.w3.org/1999/xlink">
<g id="graph0" class="graph" transform="scale(1 1) rotate(0) translate(4 178.5)">
<title>G</title>
<text text-anchor="middle" x="301.62" y="-7.95" font-family="Times,serif" font-size="14.00">The colors and penwidth are defaultly transferred from Nodes/CClusters to Edges</text>
<g id="clust1" class="cluster">
<title>cluster_Colored Cluster</title>
<polygon fill="#dae8fc" stroke="#6c8ebf" stroke-width="3" points="411,-89.25 411,-166.5 557,-166.5 557,-89.25 411,-89.25"/>
<text text-anchor="middle" x="484" y="-149.2" font-family="Times,serif" font-size="14.00">Colored Cluster</text>
</g>
<!-- Source_Node -->
<g id="node1" class="node">
<title>Source_Node</title>
<polygon fill="#f8cecc" stroke="#b85450" stroke-width="2" points="209.88,-133.25 100.12,-133.25 100.12,-97.25 209.88,-97.25 209.88,-133.25"/>
<text text-anchor="middle" x="155" y="-110.58" font-family="Times,serif" font-size="14.00">Source_Node</text>
</g>
<!-- node_dst0 -->
<g id="node2" class="node">
<title>node_dst0</title>
<polygon fill="none" stroke="black" points="271.75,-61.25 38.25,-61.25 38.25,-25.25 271.75,-25.25 271.75,-61.25"/>
<text text-anchor="middle" x="155" y="-38.58" font-family="Times,serif" font-size="14.00">Tranferred from Node to Edge</text>
</g>
<!-- Source_Node&#45;&gt;node_dst0 -->
<g id="edge1" class="edge">
<title>Source_Node&#45;&gt;node_dst0</title>
<path fill="none" stroke="#b85450" stroke-width="2" d="M155,-96.59C155,-89.9 155,-82.09 155,-74.57"/>
<polygon fill="#b85450" stroke="#b85450" stroke-width="2" points="158.5,-74.69 155,-64.69 151.5,-74.69 158.5,-74.69"/>
</g>
<!-- connect_node_Colored Cluster -->
<g id="node3" class="node">
<title>connect_node_Colored Cluster</title>
</g>
<!-- node_dst1 -->
<g id="node5" class="node">
<title>node_dst1</title>
<polygon fill="none" stroke="black" points="548.5,-61.25 289.5,-61.25 289.5,-25.25 548.5,-25.25 548.5,-61.25"/>
<text text-anchor="middle" x="419" y="-38.58" font-family="Times,serif" font-size="14.00">Tranferred from CCluster to Edge</text>
</g>
<!-- connect_node_Colored Cluster&#45;&gt;node_dst1 -->
<g id="edge2" class="edge">
<title>connect_node_Colored Cluster&#45;&gt;node_dst1</title>
<path fill="none" stroke="#6c8ebf" stroke-width="3" d="M419,-89.25C419,-84.91 419,-80.35 419,-75.86"/>
<polygon fill="#6c8ebf" stroke="#6c8ebf" stroke-width="3" points="422.5,-75.98 419,-65.98 415.5,-75.98 422.5,-75.98"/>
</g>
<!-- Nested_Node -->
<g id="node4" class="node">
<title>Nested_Node</title>
<polygon fill="none" stroke="black" points="548.62,-133.25 437.38,-133.25 437.38,-97.25 548.62,-97.25 548.62,-133.25"/>
<text text-anchor="middle" x="493" y="-110.58" font-family="Times,serif" font-size="14.00">Nested_Node</text>
</g>
</g>
</svg>
